<mxfile host="app.diagrams.net" modified="2024-06-13T01:31:36.558Z" agent="Mozilla/5.0 (Windows NT 10.0; Win64; x64; rv:126.0) Gecko/20100101 Firefox/126.0" etag="EHzYZ72-i-gXyV5NXbuN" version="24.4.0" type="github">
  <diagram id="R2lEEEUBdFMjLlhIrx00" name="Page-1">
    <mxGraphModel dx="1914" dy="938" grid="1" gridSize="10" guides="1" tooltips="1" connect="1" arrows="1" fold="1" page="1" pageScale="1" pageWidth="850" pageHeight="1100" math="0" shadow="0" extFonts="Permanent Marker^https://fonts.googleapis.com/css?family=Permanent+Marker">
      <root>
        <mxCell id="0" />
        <mxCell id="1" parent="0" />
        <mxCell id="wEjHruxYIc-bBMEDENOI-19" style="edgeStyle=orthogonalEdgeStyle;rounded=0;orthogonalLoop=1;jettySize=auto;html=1;entryX=0.5;entryY=0;entryDx=0;entryDy=0;endArrow=ERmandOne;endFill=0;strokeWidth=1;endSize=12;startSize=12;strokeColor=default;align=center;verticalAlign=middle;fontFamily=Helvetica;fontSize=11;fontColor=default;labelBackgroundColor=default;" parent="1" source="wEjHruxYIc-bBMEDENOI-1" target="wEjHruxYIc-bBMEDENOI-18" edge="1">
          <mxGeometry relative="1" as="geometry" />
        </mxCell>
        <mxCell id="wEjHruxYIc-bBMEDENOI-20" style="edgeStyle=orthogonalEdgeStyle;rounded=0;orthogonalLoop=1;jettySize=auto;html=1;entryX=0.5;entryY=0;entryDx=0;entryDy=0;endArrow=ERmandOne;endFill=0;strokeWidth=1;endSize=12;startSize=12;strokeColor=default;align=center;verticalAlign=middle;fontFamily=Helvetica;fontSize=11;fontColor=default;labelBackgroundColor=default;" parent="1" source="wEjHruxYIc-bBMEDENOI-1" edge="1">
          <mxGeometry relative="1" as="geometry">
            <mxPoint x="200" y="120" as="targetPoint" />
          </mxGeometry>
        </mxCell>
        <mxCell id="wEjHruxYIc-bBMEDENOI-24" style="edgeStyle=orthogonalEdgeStyle;rounded=0;orthogonalLoop=1;jettySize=auto;html=1;endArrow=ERmandOne;endFill=0;strokeWidth=1;endSize=12;startSize=12;strokeColor=default;align=center;verticalAlign=middle;fontFamily=Helvetica;fontSize=11;fontColor=default;labelBackgroundColor=default;" parent="1" source="wEjHruxYIc-bBMEDENOI-1" target="wEjHruxYIc-bBMEDENOI-25" edge="1">
          <mxGeometry relative="1" as="geometry">
            <mxPoint x="300" y="120" as="targetPoint" />
          </mxGeometry>
        </mxCell>
        <mxCell id="wEjHruxYIc-bBMEDENOI-26" style="edgeStyle=orthogonalEdgeStyle;rounded=0;orthogonalLoop=1;jettySize=auto;html=1;endArrow=ERmandOne;endFill=0;strokeWidth=1;endSize=12;startSize=12;strokeColor=default;align=center;verticalAlign=middle;fontFamily=Helvetica;fontSize=11;fontColor=default;labelBackgroundColor=default;" parent="1" source="wEjHruxYIc-bBMEDENOI-1" edge="1">
          <mxGeometry relative="1" as="geometry">
            <mxPoint x="440" y="120" as="targetPoint" />
          </mxGeometry>
        </mxCell>
        <mxCell id="wEjHruxYIc-bBMEDENOI-29" style="edgeStyle=orthogonalEdgeStyle;rounded=0;orthogonalLoop=1;jettySize=auto;html=1;endArrow=ERmandOne;endFill=0;strokeWidth=1;endSize=12;startSize=12;strokeColor=default;align=center;verticalAlign=middle;fontFamily=Helvetica;fontSize=11;fontColor=default;labelBackgroundColor=default;" parent="1" source="wEjHruxYIc-bBMEDENOI-1" target="wEjHruxYIc-bBMEDENOI-30" edge="1">
          <mxGeometry relative="1" as="geometry">
            <mxPoint x="560" y="120" as="targetPoint" />
          </mxGeometry>
        </mxCell>
        <mxCell id="wEjHruxYIc-bBMEDENOI-1" value="agent" style="rounded=0;whiteSpace=wrap;html=1;" parent="1" vertex="1">
          <mxGeometry x="40" y="40" width="80" height="40" as="geometry" />
        </mxCell>
        <mxCell id="wEjHruxYIc-bBMEDENOI-18" value="&lt;div&gt;symbol&lt;/div&gt;str" style="ellipse;whiteSpace=wrap;html=1;fillColor=#dae8fc;strokeColor=#6c8ebf;" parent="1" vertex="1">
          <mxGeometry x="40" y="120" width="80" height="40" as="geometry" />
        </mxCell>
        <mxCell id="wEjHruxYIc-bBMEDENOI-25" value="&lt;div&gt;credits&lt;/div&gt;i64" style="ellipse;whiteSpace=wrap;html=1;" parent="1" vertex="1">
          <mxGeometry x="280" y="120" width="80" height="40" as="geometry" />
        </mxCell>
        <mxCell id="wEjHruxYIc-bBMEDENOI-30" value="&lt;div&gt;shipCount&lt;/div&gt;&lt;div&gt;int&lt;br&gt;&lt;/div&gt;" style="ellipse;whiteSpace=wrap;html=1;" parent="1" vertex="1">
          <mxGeometry x="520" y="120" width="80" height="40" as="geometry" />
        </mxCell>
        <mxCell id="wEjHruxYIc-bBMEDENOI-31" value="startingFaction" style="rounded=0;whiteSpace=wrap;html=1;fillColor=#ffe6cc;strokeColor=#d79b00;" parent="1" vertex="1">
          <mxGeometry x="400" y="120" width="80" height="40" as="geometry" />
        </mxCell>
        <mxCell id="wEjHruxYIc-bBMEDENOI-33" style="edgeStyle=orthogonalEdgeStyle;rounded=0;orthogonalLoop=1;jettySize=auto;html=1;strokeColor=default;strokeWidth=1;align=center;verticalAlign=middle;fontFamily=Helvetica;fontSize=11;fontColor=default;labelBackgroundColor=default;startSize=12;endArrow=ERmandOne;endFill=0;endSize=12;" parent="1" source="wEjHruxYIc-bBMEDENOI-32" target="wEjHruxYIc-bBMEDENOI-34" edge="1">
          <mxGeometry relative="1" as="geometry">
            <mxPoint x="80" y="280" as="targetPoint" />
          </mxGeometry>
        </mxCell>
        <mxCell id="wEjHruxYIc-bBMEDENOI-35" style="edgeStyle=orthogonalEdgeStyle;rounded=0;orthogonalLoop=1;jettySize=auto;html=1;entryX=0.5;entryY=0;entryDx=0;entryDy=0;strokeColor=default;strokeWidth=1;align=center;verticalAlign=middle;fontFamily=Helvetica;fontSize=11;fontColor=default;labelBackgroundColor=default;startSize=12;endArrow=ERmandOne;endFill=0;endSize=12;" parent="1" source="wEjHruxYIc-bBMEDENOI-32" target="wEjHruxYIc-bBMEDENOI-37" edge="1">
          <mxGeometry relative="1" as="geometry">
            <mxPoint x="200" y="260" as="targetPoint" />
          </mxGeometry>
        </mxCell>
        <mxCell id="wEjHruxYIc-bBMEDENOI-38" style="edgeStyle=orthogonalEdgeStyle;rounded=0;orthogonalLoop=1;jettySize=auto;html=1;strokeColor=default;strokeWidth=1;align=center;verticalAlign=middle;fontFamily=Helvetica;fontSize=11;fontColor=default;labelBackgroundColor=default;startSize=12;endArrow=ERmandOne;endFill=0;endSize=12;" parent="1" source="wEjHruxYIc-bBMEDENOI-32" target="wEjHruxYIc-bBMEDENOI-39" edge="1">
          <mxGeometry relative="1" as="geometry">
            <mxPoint x="320" y="280" as="targetPoint" />
          </mxGeometry>
        </mxCell>
        <mxCell id="wEjHruxYIc-bBMEDENOI-40" style="edgeStyle=orthogonalEdgeStyle;rounded=0;orthogonalLoop=1;jettySize=auto;html=1;strokeColor=default;strokeWidth=1;align=center;verticalAlign=middle;fontFamily=Helvetica;fontSize=11;fontColor=default;labelBackgroundColor=default;startSize=12;endArrow=ERmandOne;endFill=0;endSize=12;" parent="1" source="wEjHruxYIc-bBMEDENOI-32" target="wEjHruxYIc-bBMEDENOI-41" edge="1">
          <mxGeometry relative="1" as="geometry">
            <mxPoint x="440" y="290" as="targetPoint" />
          </mxGeometry>
        </mxCell>
        <mxCell id="wEjHruxYIc-bBMEDENOI-42" style="edgeStyle=orthogonalEdgeStyle;rounded=0;orthogonalLoop=1;jettySize=auto;html=1;strokeColor=default;strokeWidth=1;align=center;verticalAlign=middle;fontFamily=Helvetica;fontSize=11;fontColor=default;labelBackgroundColor=default;startSize=12;endArrow=ERmandOne;endFill=0;endSize=12;" parent="1" source="wEjHruxYIc-bBMEDENOI-32" target="wEjHruxYIc-bBMEDENOI-43" edge="1">
          <mxGeometry relative="1" as="geometry">
            <mxPoint x="560" y="300" as="targetPoint" />
          </mxGeometry>
        </mxCell>
        <mxCell id="wEjHruxYIc-bBMEDENOI-44" style="edgeStyle=orthogonalEdgeStyle;rounded=0;orthogonalLoop=1;jettySize=auto;html=1;strokeColor=default;strokeWidth=1;align=center;verticalAlign=middle;fontFamily=Helvetica;fontSize=11;fontColor=default;labelBackgroundColor=default;startSize=12;endArrow=ERmandOne;endFill=0;endSize=12;" parent="1" source="wEjHruxYIc-bBMEDENOI-32" target="wEjHruxYIc-bBMEDENOI-45" edge="1">
          <mxGeometry relative="1" as="geometry">
            <mxPoint x="680" y="280" as="targetPoint" />
          </mxGeometry>
        </mxCell>
        <mxCell id="wEjHruxYIc-bBMEDENOI-46" style="edgeStyle=orthogonalEdgeStyle;rounded=0;orthogonalLoop=1;jettySize=auto;html=1;strokeColor=default;strokeWidth=1;align=center;verticalAlign=middle;fontFamily=Helvetica;fontSize=11;fontColor=default;labelBackgroundColor=default;startSize=12;endArrow=ERmandOne;endFill=0;endSize=12;" parent="1" source="wEjHruxYIc-bBMEDENOI-32" target="wEjHruxYIc-bBMEDENOI-47" edge="1">
          <mxGeometry relative="1" as="geometry">
            <mxPoint x="800" y="280" as="targetPoint" />
          </mxGeometry>
        </mxCell>
        <mxCell id="wEjHruxYIc-bBMEDENOI-48" style="edgeStyle=orthogonalEdgeStyle;rounded=0;orthogonalLoop=1;jettySize=auto;html=1;strokeColor=default;strokeWidth=1;align=center;verticalAlign=middle;fontFamily=Helvetica;fontSize=11;fontColor=default;labelBackgroundColor=default;startSize=12;endArrow=ERmandOne;endFill=0;endSize=12;" parent="1" source="wEjHruxYIc-bBMEDENOI-32" target="wEjHruxYIc-bBMEDENOI-49" edge="1">
          <mxGeometry relative="1" as="geometry">
            <mxPoint x="910" y="300" as="targetPoint" />
          </mxGeometry>
        </mxCell>
        <mxCell id="wEjHruxYIc-bBMEDENOI-50" style="edgeStyle=orthogonalEdgeStyle;rounded=0;orthogonalLoop=1;jettySize=auto;html=1;strokeColor=default;strokeWidth=1;align=center;verticalAlign=middle;fontFamily=Helvetica;fontSize=11;fontColor=default;labelBackgroundColor=default;startSize=12;endArrow=ERmandOne;endFill=0;endSize=12;" parent="1" source="wEjHruxYIc-bBMEDENOI-32" target="wEjHruxYIc-bBMEDENOI-51" edge="1">
          <mxGeometry relative="1" as="geometry">
            <mxPoint x="1040" y="280" as="targetPoint" />
          </mxGeometry>
        </mxCell>
        <mxCell id="wEjHruxYIc-bBMEDENOI-52" style="edgeStyle=orthogonalEdgeStyle;rounded=0;orthogonalLoop=1;jettySize=auto;html=1;strokeColor=default;strokeWidth=1;align=center;verticalAlign=middle;fontFamily=Helvetica;fontSize=11;fontColor=default;labelBackgroundColor=default;startSize=12;endArrow=ERmandOne;endFill=0;endSize=12;" parent="1" source="wEjHruxYIc-bBMEDENOI-32" target="wEjHruxYIc-bBMEDENOI-53" edge="1">
          <mxGeometry relative="1" as="geometry">
            <mxPoint x="1160" y="280" as="targetPoint" />
          </mxGeometry>
        </mxCell>
        <mxCell id="wEjHruxYIc-bBMEDENOI-54" style="edgeStyle=orthogonalEdgeStyle;rounded=0;orthogonalLoop=1;jettySize=auto;html=1;strokeColor=default;strokeWidth=1;align=center;verticalAlign=middle;fontFamily=Helvetica;fontSize=11;fontColor=default;labelBackgroundColor=default;startSize=12;endArrow=ERmandOne;endFill=0;endSize=12;" parent="1" source="wEjHruxYIc-bBMEDENOI-32" target="wEjHruxYIc-bBMEDENOI-55" edge="1">
          <mxGeometry relative="1" as="geometry">
            <mxPoint x="1280" y="300" as="targetPoint" />
          </mxGeometry>
        </mxCell>
        <mxCell id="wEjHruxYIc-bBMEDENOI-56" style="edgeStyle=orthogonalEdgeStyle;rounded=0;orthogonalLoop=1;jettySize=auto;html=1;strokeColor=default;strokeWidth=1;align=center;verticalAlign=middle;fontFamily=Helvetica;fontSize=11;fontColor=default;labelBackgroundColor=default;startSize=12;endArrow=ERmandOne;endFill=0;endSize=12;" parent="1" source="wEjHruxYIc-bBMEDENOI-32" target="wEjHruxYIc-bBMEDENOI-57" edge="1">
          <mxGeometry relative="1" as="geometry">
            <mxPoint x="860" y="430" as="targetPoint" />
          </mxGeometry>
        </mxCell>
        <mxCell id="wEjHruxYIc-bBMEDENOI-32" value="&lt;div&gt;ship&lt;/div&gt;" style="rounded=0;whiteSpace=wrap;html=1;" parent="1" vertex="1">
          <mxGeometry x="40" y="200" width="80" height="40" as="geometry" />
        </mxCell>
        <mxCell id="wEjHruxYIc-bBMEDENOI-34" value="symbol" style="ellipse;whiteSpace=wrap;html=1;fillColor=#dae8fc;strokeColor=#6c8ebf;" parent="1" vertex="1">
          <mxGeometry x="40" y="280" width="80" height="40" as="geometry" />
        </mxCell>
        <mxCell id="wEjHruxYIc-bBMEDENOI-37" value="registration" style="rounded=0;whiteSpace=wrap;html=1;" parent="1" vertex="1">
          <mxGeometry x="160" y="280" width="80" height="40" as="geometry" />
        </mxCell>
        <mxCell id="wEjHruxYIc-bBMEDENOI-39" value="nav" style="rounded=0;whiteSpace=wrap;html=1;" parent="1" vertex="1">
          <mxGeometry x="280" y="280" width="80" height="40" as="geometry" />
        </mxCell>
        <mxCell id="wEjHruxYIc-bBMEDENOI-41" value="crew" style="rounded=0;whiteSpace=wrap;html=1;" parent="1" vertex="1">
          <mxGeometry x="400" y="280" width="80" height="40" as="geometry" />
        </mxCell>
        <mxCell id="wEjHruxYIc-bBMEDENOI-43" value="frame" style="rounded=0;whiteSpace=wrap;html=1;" parent="1" vertex="1">
          <mxGeometry x="520" y="280" width="80" height="40" as="geometry" />
        </mxCell>
        <mxCell id="wEjHruxYIc-bBMEDENOI-45" value="reactor" style="rounded=0;whiteSpace=wrap;html=1;" parent="1" vertex="1">
          <mxGeometry x="640" y="280" width="80" height="40" as="geometry" />
        </mxCell>
        <mxCell id="wEjHruxYIc-bBMEDENOI-47" value="engine" style="rounded=0;whiteSpace=wrap;html=1;" parent="1" vertex="1">
          <mxGeometry x="760" y="280" width="80" height="40" as="geometry" />
        </mxCell>
        <mxCell id="wEjHruxYIc-bBMEDENOI-49" value="cooldown" style="rounded=0;whiteSpace=wrap;html=1;" parent="1" vertex="1">
          <mxGeometry x="880" y="280" width="80" height="40" as="geometry" />
        </mxCell>
        <mxCell id="wEjHruxYIc-bBMEDENOI-51" value="modules" style="rounded=0;whiteSpace=wrap;html=1;" parent="1" vertex="1">
          <mxGeometry x="1000" y="280" width="80" height="40" as="geometry" />
        </mxCell>
        <mxCell id="wEjHruxYIc-bBMEDENOI-53" value="mounts" style="rounded=0;whiteSpace=wrap;html=1;" parent="1" vertex="1">
          <mxGeometry x="1120" y="280" width="80" height="40" as="geometry" />
        </mxCell>
        <mxCell id="wEjHruxYIc-bBMEDENOI-55" value="cargo" style="rounded=0;whiteSpace=wrap;html=1;" parent="1" vertex="1">
          <mxGeometry x="1240" y="280" width="80" height="40" as="geometry" />
        </mxCell>
        <mxCell id="wEjHruxYIc-bBMEDENOI-57" value="fuel" style="rounded=0;whiteSpace=wrap;html=1;" parent="1" vertex="1">
          <mxGeometry x="1360" y="280" width="80" height="40" as="geometry" />
        </mxCell>
        <mxCell id="wEjHruxYIc-bBMEDENOI-59" style="edgeStyle=orthogonalEdgeStyle;rounded=0;orthogonalLoop=1;jettySize=auto;html=1;strokeColor=default;strokeWidth=1;align=center;verticalAlign=middle;fontFamily=Helvetica;fontSize=11;fontColor=default;labelBackgroundColor=default;startSize=12;endArrow=ERmandOne;endFill=0;endSize=12;" parent="1" source="wEjHruxYIc-bBMEDENOI-58" target="wEjHruxYIc-bBMEDENOI-60" edge="1">
          <mxGeometry relative="1" as="geometry">
            <mxPoint x="80" y="460" as="targetPoint" />
          </mxGeometry>
        </mxCell>
        <mxCell id="wEjHruxYIc-bBMEDENOI-61" style="edgeStyle=orthogonalEdgeStyle;rounded=0;orthogonalLoop=1;jettySize=auto;html=1;strokeColor=default;strokeWidth=1;align=center;verticalAlign=middle;fontFamily=Helvetica;fontSize=11;fontColor=default;labelBackgroundColor=default;startSize=12;endArrow=ERmandOne;endFill=0;endSize=12;" parent="1" source="wEjHruxYIc-bBMEDENOI-58" target="wEjHruxYIc-bBMEDENOI-62" edge="1">
          <mxGeometry relative="1" as="geometry">
            <mxPoint x="200" y="460" as="targetPoint" />
          </mxGeometry>
        </mxCell>
        <mxCell id="wEjHruxYIc-bBMEDENOI-65" style="edgeStyle=orthogonalEdgeStyle;rounded=0;orthogonalLoop=1;jettySize=auto;html=1;strokeColor=default;strokeWidth=1;align=center;verticalAlign=middle;fontFamily=Helvetica;fontSize=11;fontColor=default;labelBackgroundColor=default;startSize=12;endArrow=ERmandOne;endFill=0;endSize=12;" parent="1" source="wEjHruxYIc-bBMEDENOI-58" edge="1">
          <mxGeometry relative="1" as="geometry">
            <mxPoint x="320" y="440" as="targetPoint" />
          </mxGeometry>
        </mxCell>
        <mxCell id="wEjHruxYIc-bBMEDENOI-69" style="edgeStyle=orthogonalEdgeStyle;rounded=0;orthogonalLoop=1;jettySize=auto;html=1;strokeColor=default;strokeWidth=1;align=center;verticalAlign=middle;fontFamily=Helvetica;fontSize=11;fontColor=default;labelBackgroundColor=default;startSize=12;endArrow=ERmandOne;endFill=0;endSize=12;" parent="1" source="wEjHruxYIc-bBMEDENOI-58" edge="1">
          <mxGeometry relative="1" as="geometry">
            <mxPoint x="440" y="440" as="targetPoint" />
          </mxGeometry>
        </mxCell>
        <mxCell id="wEjHruxYIc-bBMEDENOI-71" style="edgeStyle=orthogonalEdgeStyle;rounded=0;orthogonalLoop=1;jettySize=auto;html=1;strokeColor=default;strokeWidth=1;align=center;verticalAlign=middle;fontFamily=Helvetica;fontSize=11;fontColor=default;labelBackgroundColor=default;startSize=12;endArrow=ERmandOne;endFill=0;endSize=12;" parent="1" source="wEjHruxYIc-bBMEDENOI-58" target="wEjHruxYIc-bBMEDENOI-72" edge="1">
          <mxGeometry relative="1" as="geometry">
            <mxPoint x="560" y="460" as="targetPoint" />
          </mxGeometry>
        </mxCell>
        <mxCell id="wEjHruxYIc-bBMEDENOI-73" style="edgeStyle=orthogonalEdgeStyle;rounded=0;orthogonalLoop=1;jettySize=auto;html=1;strokeColor=default;strokeWidth=1;align=center;verticalAlign=middle;fontFamily=Helvetica;fontSize=11;fontColor=default;labelBackgroundColor=default;startSize=12;endArrow=ERmandOne;endFill=0;endSize=12;" parent="1" source="wEjHruxYIc-bBMEDENOI-58" target="wEjHruxYIc-bBMEDENOI-74" edge="1">
          <mxGeometry relative="1" as="geometry">
            <mxPoint x="680" y="460" as="targetPoint" />
          </mxGeometry>
        </mxCell>
        <mxCell id="wEjHruxYIc-bBMEDENOI-58" value="faction" style="rounded=0;whiteSpace=wrap;html=1;" parent="1" vertex="1">
          <mxGeometry x="40" y="360" width="80" height="40" as="geometry" />
        </mxCell>
        <mxCell id="wEjHruxYIc-bBMEDENOI-60" value="symbol" style="ellipse;whiteSpace=wrap;html=1;fillColor=#dae8fc;strokeColor=#6c8ebf;" parent="1" vertex="1">
          <mxGeometry x="40" y="440" width="80" height="40" as="geometry" />
        </mxCell>
        <mxCell id="wEjHruxYIc-bBMEDENOI-62" value="name" style="ellipse;whiteSpace=wrap;html=1;" parent="1" vertex="1">
          <mxGeometry x="160" y="440" width="80" height="40" as="geometry" />
        </mxCell>
        <mxCell id="wEjHruxYIc-bBMEDENOI-67" value="description" style="ellipse;whiteSpace=wrap;html=1;" parent="1" vertex="1">
          <mxGeometry x="280" y="440" width="80" height="40" as="geometry" />
        </mxCell>
        <mxCell id="wEjHruxYIc-bBMEDENOI-72" value="traits" style="rounded=0;whiteSpace=wrap;html=1;fillColor=#ffe6cc;strokeColor=#d79b00;" parent="1" vertex="1">
          <mxGeometry x="520" y="440" width="80" height="40" as="geometry" />
        </mxCell>
        <mxCell id="wEjHruxYIc-bBMEDENOI-74" value="isRecruiting" style="ellipse;whiteSpace=wrap;html=1;" parent="1" vertex="1">
          <mxGeometry x="640" y="440" width="80" height="40" as="geometry" />
        </mxCell>
        <mxCell id="wEjHruxYIc-bBMEDENOI-76" style="edgeStyle=orthogonalEdgeStyle;rounded=0;orthogonalLoop=1;jettySize=auto;html=1;strokeColor=default;strokeWidth=1;align=center;verticalAlign=middle;fontFamily=Helvetica;fontSize=11;fontColor=default;labelBackgroundColor=default;startSize=12;endArrow=ERmandOne;endFill=0;endSize=12;" parent="1" source="wEjHruxYIc-bBMEDENOI-75" target="wEjHruxYIc-bBMEDENOI-77" edge="1">
          <mxGeometry relative="1" as="geometry">
            <mxPoint x="80" y="620" as="targetPoint" />
          </mxGeometry>
        </mxCell>
        <mxCell id="wEjHruxYIc-bBMEDENOI-78" style="edgeStyle=orthogonalEdgeStyle;rounded=0;orthogonalLoop=1;jettySize=auto;html=1;strokeColor=default;strokeWidth=1;align=center;verticalAlign=middle;fontFamily=Helvetica;fontSize=11;fontColor=default;labelBackgroundColor=default;startSize=12;endArrow=ERmandOne;endFill=0;endSize=12;" parent="1" source="wEjHruxYIc-bBMEDENOI-75" target="wEjHruxYIc-bBMEDENOI-79" edge="1">
          <mxGeometry relative="1" as="geometry">
            <mxPoint x="200" y="620" as="targetPoint" />
          </mxGeometry>
        </mxCell>
        <mxCell id="wEjHruxYIc-bBMEDENOI-80" style="edgeStyle=orthogonalEdgeStyle;rounded=0;orthogonalLoop=1;jettySize=auto;html=1;strokeColor=default;strokeWidth=1;align=center;verticalAlign=middle;fontFamily=Helvetica;fontSize=11;fontColor=default;labelBackgroundColor=default;startSize=12;endArrow=ERmandOne;endFill=0;endSize=12;" parent="1" source="wEjHruxYIc-bBMEDENOI-75" target="wEjHruxYIc-bBMEDENOI-81" edge="1">
          <mxGeometry relative="1" as="geometry">
            <mxPoint x="320" y="620" as="targetPoint" />
          </mxGeometry>
        </mxCell>
        <mxCell id="wEjHruxYIc-bBMEDENOI-82" style="edgeStyle=orthogonalEdgeStyle;rounded=0;orthogonalLoop=1;jettySize=auto;html=1;strokeColor=default;strokeWidth=1;align=center;verticalAlign=middle;fontFamily=Helvetica;fontSize=11;fontColor=default;labelBackgroundColor=default;startSize=12;endArrow=ERmandOne;endFill=0;endSize=12;" parent="1" source="wEjHruxYIc-bBMEDENOI-75" target="wEjHruxYIc-bBMEDENOI-83" edge="1">
          <mxGeometry relative="1" as="geometry">
            <mxPoint x="440" y="620" as="targetPoint" />
          </mxGeometry>
        </mxCell>
        <mxCell id="wEjHruxYIc-bBMEDENOI-84" style="edgeStyle=orthogonalEdgeStyle;rounded=0;orthogonalLoop=1;jettySize=auto;html=1;strokeColor=default;strokeWidth=1;align=center;verticalAlign=middle;fontFamily=Helvetica;fontSize=11;fontColor=default;labelBackgroundColor=default;startSize=12;endArrow=ERmandOne;endFill=0;endSize=12;" parent="1" source="wEjHruxYIc-bBMEDENOI-75" target="wEjHruxYIc-bBMEDENOI-85" edge="1">
          <mxGeometry relative="1" as="geometry">
            <mxPoint x="560" y="620" as="targetPoint" />
          </mxGeometry>
        </mxCell>
        <mxCell id="wEjHruxYIc-bBMEDENOI-86" style="edgeStyle=orthogonalEdgeStyle;rounded=0;orthogonalLoop=1;jettySize=auto;html=1;strokeColor=default;strokeWidth=1;align=center;verticalAlign=middle;fontFamily=Helvetica;fontSize=11;fontColor=default;labelBackgroundColor=default;startSize=12;endArrow=ERmandOne;endFill=0;endSize=12;" parent="1" source="wEjHruxYIc-bBMEDENOI-75" target="wEjHruxYIc-bBMEDENOI-87" edge="1">
          <mxGeometry relative="1" as="geometry">
            <mxPoint x="680" y="620" as="targetPoint" />
          </mxGeometry>
        </mxCell>
        <mxCell id="wEjHruxYIc-bBMEDENOI-75" value="system" style="rounded=0;whiteSpace=wrap;html=1;" parent="1" vertex="1">
          <mxGeometry x="40" y="520" width="80" height="40" as="geometry" />
        </mxCell>
        <mxCell id="wEjHruxYIc-bBMEDENOI-77" value="symbol" style="ellipse;whiteSpace=wrap;html=1;fillColor=#dae8fc;strokeColor=#6c8ebf;" parent="1" vertex="1">
          <mxGeometry x="40" y="600" width="80" height="40" as="geometry" />
        </mxCell>
        <mxCell id="wEjHruxYIc-bBMEDENOI-79" value="sectorSymbol" style="ellipse;whiteSpace=wrap;html=1;fillColor=#ffe6cc;strokeColor=#d79b00;" parent="1" vertex="1">
          <mxGeometry x="160" y="600" width="80" height="40" as="geometry" />
        </mxCell>
        <mxCell id="wEjHruxYIc-bBMEDENOI-81" value="type" style="ellipse;whiteSpace=wrap;html=1;" parent="1" vertex="1">
          <mxGeometry x="280" y="600" width="80" height="40" as="geometry" />
        </mxCell>
        <mxCell id="wEjHruxYIc-bBMEDENOI-83" value="(x, y)" style="ellipse;whiteSpace=wrap;html=1;" parent="1" vertex="1">
          <mxGeometry x="400" y="600" width="80" height="40" as="geometry" />
        </mxCell>
        <mxCell id="wEjHruxYIc-bBMEDENOI-85" value="waypoints" style="rounded=0;whiteSpace=wrap;html=1;fillColor=#ffe6cc;strokeColor=#d79b00;" parent="1" vertex="1">
          <mxGeometry x="520" y="600" width="80" height="40" as="geometry" />
        </mxCell>
        <mxCell id="wEjHruxYIc-bBMEDENOI-87" value="factions" style="rounded=0;whiteSpace=wrap;html=1;fillColor=#ffe6cc;strokeColor=#d79b00;" parent="1" vertex="1">
          <mxGeometry x="640" y="600" width="80" height="40" as="geometry" />
        </mxCell>
        <mxCell id="wEjHruxYIc-bBMEDENOI-89" style="edgeStyle=orthogonalEdgeStyle;rounded=0;orthogonalLoop=1;jettySize=auto;html=1;strokeColor=default;strokeWidth=1;align=center;verticalAlign=middle;fontFamily=Helvetica;fontSize=11;fontColor=default;labelBackgroundColor=default;startSize=12;endArrow=ERmandOne;endFill=0;endSize=12;" parent="1" source="wEjHruxYIc-bBMEDENOI-88" target="wEjHruxYIc-bBMEDENOI-90" edge="1">
          <mxGeometry relative="1" as="geometry">
            <mxPoint x="80" y="780" as="targetPoint" />
          </mxGeometry>
        </mxCell>
        <mxCell id="wEjHruxYIc-bBMEDENOI-91" style="edgeStyle=orthogonalEdgeStyle;rounded=0;orthogonalLoop=1;jettySize=auto;html=1;strokeColor=default;strokeWidth=1;align=center;verticalAlign=middle;fontFamily=Helvetica;fontSize=11;fontColor=default;labelBackgroundColor=default;startSize=12;endArrow=ERmandOne;endFill=0;endSize=12;" parent="1" source="wEjHruxYIc-bBMEDENOI-88" target="wEjHruxYIc-bBMEDENOI-92" edge="1">
          <mxGeometry relative="1" as="geometry">
            <mxPoint x="200" y="780" as="targetPoint" />
          </mxGeometry>
        </mxCell>
        <mxCell id="wEjHruxYIc-bBMEDENOI-93" style="edgeStyle=orthogonalEdgeStyle;rounded=0;orthogonalLoop=1;jettySize=auto;html=1;strokeColor=default;strokeWidth=1;align=center;verticalAlign=middle;fontFamily=Helvetica;fontSize=11;fontColor=default;labelBackgroundColor=default;startSize=12;endArrow=ERmandOne;endFill=0;endSize=12;" parent="1" source="wEjHruxYIc-bBMEDENOI-88" target="wEjHruxYIc-bBMEDENOI-94" edge="1">
          <mxGeometry relative="1" as="geometry">
            <mxPoint x="320" y="780" as="targetPoint" />
          </mxGeometry>
        </mxCell>
        <mxCell id="wEjHruxYIc-bBMEDENOI-95" style="edgeStyle=orthogonalEdgeStyle;rounded=0;orthogonalLoop=1;jettySize=auto;html=1;strokeColor=default;strokeWidth=1;align=center;verticalAlign=middle;fontFamily=Helvetica;fontSize=11;fontColor=default;labelBackgroundColor=default;startSize=12;endArrow=ERmandOne;endFill=0;endSize=12;" parent="1" source="wEjHruxYIc-bBMEDENOI-88" target="wEjHruxYIc-bBMEDENOI-96" edge="1">
          <mxGeometry relative="1" as="geometry">
            <mxPoint x="440" y="760" as="targetPoint" />
          </mxGeometry>
        </mxCell>
        <mxCell id="wEjHruxYIc-bBMEDENOI-97" style="edgeStyle=orthogonalEdgeStyle;rounded=0;orthogonalLoop=1;jettySize=auto;html=1;strokeColor=default;strokeWidth=1;align=center;verticalAlign=middle;fontFamily=Helvetica;fontSize=11;fontColor=default;labelBackgroundColor=default;startSize=12;endArrow=ERmandOne;endFill=0;endSize=12;" parent="1" source="wEjHruxYIc-bBMEDENOI-88" target="wEjHruxYIc-bBMEDENOI-98" edge="1">
          <mxGeometry relative="1" as="geometry">
            <mxPoint x="560" y="760" as="targetPoint" />
          </mxGeometry>
        </mxCell>
        <mxCell id="wEjHruxYIc-bBMEDENOI-99" style="edgeStyle=orthogonalEdgeStyle;rounded=0;orthogonalLoop=1;jettySize=auto;html=1;strokeColor=default;strokeWidth=1;align=center;verticalAlign=middle;fontFamily=Helvetica;fontSize=11;fontColor=default;labelBackgroundColor=default;startSize=12;endArrow=ERmandOne;endFill=0;endSize=12;" parent="1" source="wEjHruxYIc-bBMEDENOI-88" target="wEjHruxYIc-bBMEDENOI-100" edge="1">
          <mxGeometry relative="1" as="geometry">
            <mxPoint x="680" y="780" as="targetPoint" />
          </mxGeometry>
        </mxCell>
        <mxCell id="wEjHruxYIc-bBMEDENOI-101" style="edgeStyle=orthogonalEdgeStyle;rounded=0;orthogonalLoop=1;jettySize=auto;html=1;strokeColor=default;strokeWidth=1;align=center;verticalAlign=middle;fontFamily=Helvetica;fontSize=11;fontColor=default;labelBackgroundColor=default;startSize=12;endArrow=ERmandOne;endFill=0;endSize=12;" parent="1" source="wEjHruxYIc-bBMEDENOI-88" target="wEjHruxYIc-bBMEDENOI-102" edge="1">
          <mxGeometry relative="1" as="geometry">
            <mxPoint x="800" y="780" as="targetPoint" />
          </mxGeometry>
        </mxCell>
        <mxCell id="wEjHruxYIc-bBMEDENOI-103" style="edgeStyle=orthogonalEdgeStyle;rounded=0;orthogonalLoop=1;jettySize=auto;html=1;strokeColor=default;strokeWidth=1;align=center;verticalAlign=middle;fontFamily=Helvetica;fontSize=11;fontColor=default;labelBackgroundColor=default;startSize=12;endArrow=ERmandOne;endFill=0;endSize=12;" parent="1" source="wEjHruxYIc-bBMEDENOI-88" target="wEjHruxYIc-bBMEDENOI-104" edge="1">
          <mxGeometry relative="1" as="geometry">
            <mxPoint x="920" y="780" as="targetPoint" />
          </mxGeometry>
        </mxCell>
        <mxCell id="wEjHruxYIc-bBMEDENOI-88" value="contract" style="rounded=0;whiteSpace=wrap;html=1;" parent="1" vertex="1">
          <mxGeometry x="40" y="680" width="80" height="40" as="geometry" />
        </mxCell>
        <mxCell id="wEjHruxYIc-bBMEDENOI-90" value="id" style="ellipse;whiteSpace=wrap;html=1;fillColor=#dae8fc;strokeColor=#6c8ebf;" parent="1" vertex="1">
          <mxGeometry x="40" y="760" width="80" height="40" as="geometry" />
        </mxCell>
        <mxCell id="wEjHruxYIc-bBMEDENOI-92" value="factionSymbol" style="rounded=0;whiteSpace=wrap;html=1;fillColor=#ffe6cc;strokeColor=#d79b00;" parent="1" vertex="1">
          <mxGeometry x="160" y="760" width="80" height="40" as="geometry" />
        </mxCell>
        <mxCell id="wEjHruxYIc-bBMEDENOI-94" value="type" style="ellipse;whiteSpace=wrap;html=1;" parent="1" vertex="1">
          <mxGeometry x="280" y="760" width="80" height="40" as="geometry" />
        </mxCell>
        <mxCell id="wEjHruxYIc-bBMEDENOI-96" value="terms" style="rounded=0;whiteSpace=wrap;html=1;fillColor=#ffe6cc;strokeColor=#d79b00;" parent="1" vertex="1">
          <mxGeometry x="400" y="760" width="80" height="40" as="geometry" />
        </mxCell>
        <mxCell id="wEjHruxYIc-bBMEDENOI-98" value="accepted" style="ellipse;whiteSpace=wrap;html=1;" parent="1" vertex="1">
          <mxGeometry x="520" y="760" width="80" height="40" as="geometry" />
        </mxCell>
        <mxCell id="wEjHruxYIc-bBMEDENOI-100" value="fulfilled" style="ellipse;whiteSpace=wrap;html=1;" parent="1" vertex="1">
          <mxGeometry x="640" y="760" width="80" height="40" as="geometry" />
        </mxCell>
        <mxCell id="wEjHruxYIc-bBMEDENOI-102" value="expiration" style="ellipse;whiteSpace=wrap;html=1;" parent="1" vertex="1">
          <mxGeometry x="760" y="760" width="80" height="40" as="geometry" />
        </mxCell>
        <mxCell id="wEjHruxYIc-bBMEDENOI-104" value="deadline" style="ellipse;whiteSpace=wrap;html=1;" parent="1" vertex="1">
          <mxGeometry x="880" y="760" width="80" height="40" as="geometry" />
        </mxCell>
        <mxCell id="wEjHruxYIc-bBMEDENOI-106" style="edgeStyle=orthogonalEdgeStyle;rounded=0;orthogonalLoop=1;jettySize=auto;html=1;strokeColor=default;strokeWidth=1;align=center;verticalAlign=middle;fontFamily=Helvetica;fontSize=11;fontColor=default;labelBackgroundColor=default;startSize=12;endArrow=ERmandOne;endFill=0;endSize=12;" parent="1" source="wEjHruxYIc-bBMEDENOI-105" target="wEjHruxYIc-bBMEDENOI-107" edge="1">
          <mxGeometry relative="1" as="geometry">
            <mxPoint x="80" y="940" as="targetPoint" />
          </mxGeometry>
        </mxCell>
        <mxCell id="wEjHruxYIc-bBMEDENOI-108" style="edgeStyle=orthogonalEdgeStyle;rounded=0;orthogonalLoop=1;jettySize=auto;html=1;strokeColor=default;strokeWidth=1;align=center;verticalAlign=middle;fontFamily=Helvetica;fontSize=11;fontColor=default;labelBackgroundColor=default;startSize=12;endArrow=ERmandOne;endFill=0;endSize=12;" parent="1" source="wEjHruxYIc-bBMEDENOI-105" target="wEjHruxYIc-bBMEDENOI-109" edge="1">
          <mxGeometry relative="1" as="geometry">
            <mxPoint x="200" y="940" as="targetPoint" />
          </mxGeometry>
        </mxCell>
        <mxCell id="wEjHruxYIc-bBMEDENOI-110" style="edgeStyle=orthogonalEdgeStyle;rounded=0;orthogonalLoop=1;jettySize=auto;html=1;strokeColor=default;strokeWidth=1;align=center;verticalAlign=middle;fontFamily=Helvetica;fontSize=11;fontColor=default;labelBackgroundColor=default;startSize=12;endArrow=ERmandOne;endFill=0;endSize=12;" parent="1" source="wEjHruxYIc-bBMEDENOI-105" target="wEjHruxYIc-bBMEDENOI-111" edge="1">
          <mxGeometry relative="1" as="geometry">
            <mxPoint x="320" y="940" as="targetPoint" />
          </mxGeometry>
        </mxCell>
        <mxCell id="wEjHruxYIc-bBMEDENOI-112" style="edgeStyle=orthogonalEdgeStyle;rounded=0;orthogonalLoop=1;jettySize=auto;html=1;strokeColor=default;strokeWidth=1;align=center;verticalAlign=middle;fontFamily=Helvetica;fontSize=11;fontColor=default;labelBackgroundColor=default;startSize=12;endArrow=ERmandOne;endFill=0;endSize=12;" parent="1" source="wEjHruxYIc-bBMEDENOI-105" target="wEjHruxYIc-bBMEDENOI-113" edge="1">
          <mxGeometry relative="1" as="geometry">
            <mxPoint x="440" y="940" as="targetPoint" />
          </mxGeometry>
        </mxCell>
        <mxCell id="wEjHruxYIc-bBMEDENOI-114" style="edgeStyle=orthogonalEdgeStyle;rounded=0;orthogonalLoop=1;jettySize=auto;html=1;strokeColor=default;strokeWidth=1;align=center;verticalAlign=middle;fontFamily=Helvetica;fontSize=11;fontColor=default;labelBackgroundColor=default;startSize=12;endArrow=ERmandOne;endFill=0;endSize=12;" parent="1" source="wEjHruxYIc-bBMEDENOI-105" target="wEjHruxYIc-bBMEDENOI-115" edge="1">
          <mxGeometry relative="1" as="geometry">
            <mxPoint x="560" y="950" as="targetPoint" />
          </mxGeometry>
        </mxCell>
        <mxCell id="wEjHruxYIc-bBMEDENOI-116" style="edgeStyle=orthogonalEdgeStyle;rounded=0;orthogonalLoop=1;jettySize=auto;html=1;strokeColor=default;strokeWidth=1;align=center;verticalAlign=middle;fontFamily=Helvetica;fontSize=11;fontColor=default;labelBackgroundColor=default;startSize=12;endArrow=ERmandOne;endFill=0;endSize=12;" parent="1" source="wEjHruxYIc-bBMEDENOI-105" target="wEjHruxYIc-bBMEDENOI-117" edge="1">
          <mxGeometry relative="1" as="geometry">
            <mxPoint x="680" y="940" as="targetPoint" />
          </mxGeometry>
        </mxCell>
        <mxCell id="wEjHruxYIc-bBMEDENOI-105" value="market" style="rounded=0;whiteSpace=wrap;html=1;" parent="1" vertex="1">
          <mxGeometry x="40" y="840" width="80" height="40" as="geometry" />
        </mxCell>
        <mxCell id="wEjHruxYIc-bBMEDENOI-107" value="symbol" style="ellipse;whiteSpace=wrap;html=1;fillColor=#ffe6cc;strokeColor=#d79b00;" parent="1" vertex="1">
          <mxGeometry x="40" y="920" width="80" height="40" as="geometry" />
        </mxCell>
        <mxCell id="wEjHruxYIc-bBMEDENOI-109" value="exports" style="rounded=0;whiteSpace=wrap;html=1;fillColor=#ffe6cc;strokeColor=#d79b00;" parent="1" vertex="1">
          <mxGeometry x="160" y="920" width="80" height="40" as="geometry" />
        </mxCell>
        <mxCell id="wEjHruxYIc-bBMEDENOI-111" value="imports" style="rounded=0;whiteSpace=wrap;html=1;fillColor=#ffe6cc;strokeColor=#d79b00;" parent="1" vertex="1">
          <mxGeometry x="280" y="920" width="80" height="40" as="geometry" />
        </mxCell>
        <mxCell id="wEjHruxYIc-bBMEDENOI-113" value="exchange" style="rounded=0;whiteSpace=wrap;html=1;fillColor=#ffe6cc;strokeColor=#d79b00;" parent="1" vertex="1">
          <mxGeometry x="400" y="920" width="80" height="40" as="geometry" />
        </mxCell>
        <mxCell id="wEjHruxYIc-bBMEDENOI-115" value="transactions" style="rounded=0;whiteSpace=wrap;html=1;fillColor=#ffe6cc;strokeColor=#d79b00;" parent="1" vertex="1">
          <mxGeometry x="520" y="920" width="80" height="40" as="geometry" />
        </mxCell>
        <mxCell id="wEjHruxYIc-bBMEDENOI-117" value="tradeGoods" style="rounded=0;whiteSpace=wrap;html=1;fillColor=#ffe6cc;strokeColor=#d79b00;" parent="1" vertex="1">
          <mxGeometry x="640" y="920" width="80" height="40" as="geometry" />
        </mxCell>
        <mxCell id="ssmmhdeT3OkXxgxkgfMs-5" value="&lt;div&gt;&quot;headquarters&quot;&lt;/div&gt;&lt;div&gt;waypoint&lt;br&gt;&lt;/div&gt;" style="rounded=0;whiteSpace=wrap;html=1;fillColor=#ffe6cc;strokeColor=#d79b00;" vertex="1" parent="1">
          <mxGeometry x="160" y="120" width="80" height="40" as="geometry" />
        </mxCell>
        <mxCell id="ssmmhdeT3OkXxgxkgfMs-6" value="&lt;div&gt;&quot;headquarters&quot;&lt;/div&gt;&lt;div&gt;waypoint&lt;br&gt;&lt;/div&gt;" style="rounded=0;whiteSpace=wrap;html=1;fillColor=#ffe6cc;strokeColor=#d79b00;" vertex="1" parent="1">
          <mxGeometry x="400" y="440" width="80" height="40" as="geometry" />
        </mxCell>
      </root>
    </mxGraphModel>
  </diagram>
</mxfile>
